<svg width="22" height="22" viewBox="0 0 22 22" fill="none" xmlns="http://www.w3.org/2000/svg">
<g clip-path="url(#clip0_319_42)">
<path d="M10.9214 1.9667C13.8394 1.9667 14.185 1.97949 15.3326 2.03069C16.3991 2.07762 16.975 2.25679 17.359 2.40611C17.8666 2.60235 18.2335 2.84126 18.6132 3.22095C18.9972 3.6049 19.2318 3.96752 19.4281 4.47519C19.5774 4.85915 19.7566 5.43934 19.8035 6.50162C19.8547 7.65348 19.8675 7.99904 19.8675 10.9128C19.8675 13.8309 19.8547 14.1764 19.8035 15.324C19.7566 16.3906 19.5774 16.9665 19.4281 17.3504C19.2318 17.8581 18.9929 18.225 18.6132 18.6047C18.2293 18.9886 17.8666 19.2233 17.359 19.4195C16.975 19.5688 16.3948 19.748 15.3326 19.7949C14.1807 19.8461 13.8351 19.8589 10.9214 19.8589C8.0033 19.8589 7.65774 19.8461 6.51015 19.7949C5.44361 19.748 4.86768 19.5688 4.48373 19.4195C3.97605 19.2233 3.60917 18.9844 3.22948 18.6047C2.84552 18.2207 2.61089 17.8581 2.41464 17.3504C2.26533 16.9665 2.08615 16.3863 2.03922 15.324C1.98803 14.1722 1.97523 13.8266 1.97523 10.9128C1.97523 7.99477 1.98803 7.64921 2.03922 6.50162C2.08615 5.43508 2.26533 4.85915 2.41464 4.47519C2.61089 3.96752 2.84979 3.60063 3.22948 3.22095C3.61343 2.83699 3.97605 2.60235 4.48373 2.40611C4.86768 2.25679 5.44788 2.07762 6.51015 2.03069C7.65774 1.97949 8.0033 1.9667 10.9214 1.9667ZM10.9214 0C7.95638 0 7.58522 0.0127985 6.42056 0.0639923C5.26017 0.115186 4.4624 0.302897 3.77128 0.571664C3.0503 0.85323 2.44024 1.22439 1.83445 1.83445C1.22439 2.44024 0.853231 3.0503 0.571664 3.76701C0.302897 4.4624 0.115186 5.2559 0.0639923 6.41629C0.0127985 7.58522 0 7.95637 0 10.9214C0 13.8863 0.0127985 14.2575 0.0639923 15.4221C0.115186 16.5825 0.302897 17.3803 0.571664 18.0714C0.853231 18.7924 1.22439 19.4025 1.83445 20.0083C2.44024 20.614 3.0503 20.9895 3.76701 21.2668C4.4624 21.5355 5.2559 21.7232 6.41629 21.7744C7.58095 21.8256 7.95211 21.8384 10.9171 21.8384C13.8821 21.8384 14.2532 21.8256 15.4179 21.7744C16.5783 21.7232 17.376 21.5355 18.0672 21.2668C18.7839 20.9895 19.3939 20.614 19.9997 20.0083C20.6055 19.4025 20.9809 18.7924 21.2582 18.0757C21.527 17.3803 21.7147 16.5868 21.7659 15.4264C21.8171 14.2617 21.8299 13.8906 21.8299 10.9256C21.8299 7.96064 21.8171 7.58949 21.7659 6.42483C21.7147 5.26443 21.527 4.46666 21.2582 3.77555C20.9895 3.0503 20.6183 2.44024 20.0083 1.83445C19.4025 1.22865 18.7924 0.853231 18.0757 0.575931C17.3803 0.307163 16.5868 0.119452 15.4264 0.0682584C14.2575 0.0127985 13.8863 0 10.9214 0Z" fill="#333333"/>
<path d="M10.9215 5.31136C7.82429 5.31136 5.31152 7.82412 5.31152 10.9213C5.31152 14.0186 7.82429 16.5313 10.9215 16.5313C14.0187 16.5313 16.5315 14.0186 16.5315 10.9213C16.5315 7.82412 14.0187 5.31136 10.9215 5.31136ZM10.9215 14.5604C8.91216 14.5604 7.28249 12.9307 7.28249 10.9213C7.28249 8.91199 8.91216 7.28232 10.9215 7.28232C12.9309 7.28232 14.5605 8.91199 14.5605 10.9213C14.5605 12.9307 12.9309 14.5604 10.9215 14.5604Z" fill="#333333"/>
<path d="M18.0628 5.08948C18.0628 5.81473 17.474 6.39919 16.7531 6.39919C16.0278 6.39919 15.4434 5.81046 15.4434 5.08948C15.4434 4.36423 16.0321 3.77977 16.7531 3.77977C17.474 3.77977 18.0628 4.3685 18.0628 5.08948Z" fill="#333333"/>
</g>
<defs>
<clipPath id="clip0_319_42">
<rect width="21.8427" height="21.8427" fill="white"/>
</clipPath>
</defs>
</svg>
