<svg width="29" height="29" viewBox="0 0 29 29" fill="none" xmlns="http://www.w3.org/2000/svg">
<g clip-path="url(#clip0_62_442)">
<path d="M14.1951 2.55623C17.9879 2.55623 18.437 2.57287 19.9286 2.63941C21.3149 2.7004 22.0634 2.93329 22.5625 3.12736C23.2223 3.38243 23.6992 3.69295 24.1927 4.18645C24.6918 4.6855 24.9967 5.15682 25.2518 5.81668C25.4459 6.31572 25.6788 7.06984 25.7398 8.45054C25.8063 9.94768 25.8229 10.3968 25.8229 14.184C25.8229 17.9768 25.8063 18.4259 25.7398 19.9175C25.6788 21.3038 25.4459 22.0524 25.2518 22.5514C24.9967 23.2113 24.6862 23.6881 24.1927 24.1816C23.6937 24.6807 23.2223 24.9856 22.5625 25.2407C22.0634 25.4348 21.3093 25.6677 19.9286 25.7287C18.4315 25.7952 17.9823 25.8118 14.1951 25.8118C10.4024 25.8118 9.95323 25.7952 8.46163 25.7287C7.07539 25.6677 6.32681 25.4348 5.82777 25.2407C5.16792 24.9856 4.69105 24.6751 4.19754 24.1816C3.6985 23.6826 3.39352 23.2113 3.13845 22.5514C2.94438 22.0524 2.71149 21.2982 2.6505 19.9175C2.58396 18.4204 2.56732 17.9713 2.56732 14.184C2.56732 10.3913 2.58396 9.94214 2.6505 8.45054C2.71149 7.06429 2.94438 6.31572 3.13845 5.81668C3.39352 5.15682 3.70404 4.67996 4.19754 4.18645C4.69659 3.68741 5.16792 3.38243 5.82777 3.12736C6.32681 2.93329 7.08093 2.7004 8.46163 2.63941C9.95323 2.57287 10.4024 2.55623 14.1951 2.55623ZM14.1951 0C10.3414 0 9.85896 0.0166349 8.34519 0.0831746C6.83695 0.149714 5.80004 0.393693 4.90176 0.743026C3.96466 1.10899 3.17173 1.59141 2.38434 2.38434C1.59141 3.17172 1.10899 3.96466 0.743026 4.89621C0.393693 5.80004 0.149714 6.83141 0.0831746 8.33964C0.0166349 9.85896 0 10.3414 0 14.1951C0 18.0489 0.0166349 18.5313 0.0831746 20.0451C0.149714 21.5533 0.393693 22.5902 0.743026 23.4885C1.10899 24.4256 1.59141 25.2185 2.38434 26.0059C3.17173 26.7933 3.96466 27.2813 4.89621 27.6417C5.80004 27.991 6.83141 28.235 8.33964 28.3015C9.85342 28.3681 10.3358 28.3847 14.1896 28.3847C18.0433 28.3847 18.5258 28.3681 20.0395 28.3015C21.5478 28.235 22.5847 27.991 23.483 27.6417C24.4145 27.2813 25.2074 26.7933 25.9948 26.0059C26.7822 25.2185 27.2702 24.4256 27.6306 23.4941C27.9799 22.5902 28.2239 21.5589 28.2905 20.0506C28.357 18.5368 28.3736 18.0544 28.3736 14.2007C28.3736 10.3469 28.357 9.86451 28.2905 8.35073C28.2239 6.8425 27.9799 5.80559 27.6306 4.9073C27.2813 3.96466 26.7989 3.17172 26.0059 2.38434C25.2185 1.59695 24.4256 1.10899 23.4941 0.748571C22.5902 0.399238 21.5589 0.155259 20.0506 0.0887196C18.5313 0.0166349 18.0489 0 14.1951 0Z" fill="white"/>
<path d="M14.195 6.90356C10.1693 6.90356 6.90332 10.1696 6.90332 14.1952C6.90332 18.2209 10.1693 21.4868 14.195 21.4868C18.2206 21.4868 21.4866 18.2209 21.4866 14.1952C21.4866 10.1696 18.2206 6.90356 14.195 6.90356ZM14.195 18.9251C11.5833 18.9251 9.4651 16.8069 9.4651 14.1952C9.4651 11.5835 11.5833 9.46534 14.195 9.46534C16.8066 9.46534 18.9248 11.5835 18.9248 14.1952C18.9248 16.8069 16.8066 18.9251 14.195 18.9251Z" fill="white"/>
<path d="M23.4774 6.61515C23.4774 7.5578 22.7122 8.31746 21.7751 8.31746C20.8324 8.31746 20.0728 7.55225 20.0728 6.61515C20.0728 5.6725 20.838 4.91284 21.7751 4.91284C22.7122 4.91284 23.4774 5.67805 23.4774 6.61515Z" fill="white"/>
</g>
<defs>
<clipPath id="clip0_62_442">
<rect width="28.3903" height="28.3903" fill="white"/>
</clipPath>
</defs>
</svg>
