<?xml version="1.0" encoding="UTF-8"?>
<svg id="_レイヤー_2" data-name="レイヤー 2" xmlns="http://www.w3.org/2000/svg" viewBox="0 0 405.27 57.29">
  <defs>
    <style>
      .cls-1 {
        fill: #fff;
      }

      .cls-2 {
        fill: #e60012;
      }

      .cls-3 {
        fill: #004098;
      }
    </style>
  </defs>
  <g id="_レイヤー_1-2" data-name="レイヤー 1">
    <g>
      <g>
        <path class="cls-2" d="M49.12,11.49l-6.75,6.63c-4.59-5-9.76-7.5-15.5-7.5-4.85,0-8.93,1.71-12.24,5.12-3.32,3.41-4.98,7.62-4.98,12.62,0,3.48.73,6.58,2.2,9.27,1.47,2.7,3.55,4.82,6.23,6.36,2.69,1.54,5.67,2.31,8.96,2.31,2.8,0,5.36-.54,7.68-1.62,2.32-1.08,4.87-3.04,7.65-5.88l6.54,7.03c-3.75,3.76-7.28,6.38-10.62,7.83-3.33,1.46-7.13,2.18-11.41,2.18-7.88,0-14.33-2.57-19.35-7.72C2.51,42.97,0,36.38,0,28.33c0-5.21,1.14-9.83,3.43-13.88,2.29-4.05,5.56-7.3,9.82-9.76,4.26-2.46,8.85-3.69,13.77-3.69,4.18,0,8.21.91,12.08,2.73,3.87,1.82,7.21,4.41,10.01,7.76Z"/>
        <path class="cls-3" d="M80.25,15.9h9.41v38.63h-9.41v-4.08c-1.84,1.8-3.68,3.09-5.53,3.89-1.85.79-3.85,1.19-6.01,1.19-4.84,0-9.03-1.94-12.57-5.81-3.53-3.87-5.3-8.68-5.3-14.43s1.71-10.85,5.13-14.66c3.42-3.81,7.57-5.72,12.46-5.72,2.25,0,4.36.44,6.33,1.31,1.97.88,3.8,2.19,5.48,3.94v-4.26ZM70.36,23.86c-2.91,0-5.32,1.06-7.25,3.18-1.92,2.12-2.89,4.83-2.89,8.15s.98,6.08,2.94,8.24,4.37,3.23,7.23,3.23,5.4-1.06,7.35-3.18,2.92-4.89,2.92-8.33-.97-6.08-2.92-8.17-4.41-3.12-7.39-3.12Z"/>
        <path class="cls-3" d="M94.63,15.9h3.34c.02-5.06.1-8.06.24-8.98.25-2.13,1.12-3.82,2.6-5.06,1.48-1.24,3.58-1.86,6.29-1.86,1.95,0,4.16.46,6.62,1.38v7.39c-1.36-.4-2.47-.6-3.34-.6-1.1,0-1.91.24-2.41.71-.37.36-.55,1.09-.55,2.2l-.03,4.83h5.96v8.2h-5.96v30.43h-9.41v-30.43h-3.34v-8.2Z"/>
        <path class="cls-3" d="M154.66,38.02h-30.23c.44,2.75,1.6,4.93,3.5,6.55,1.9,1.62,4.31,2.43,7.26,2.43,3.52,0,6.54-1.26,9.07-3.8l7.93,3.83c-1.98,2.89-4.34,5.02-7.1,6.41-2.76,1.39-6.03,2.08-9.82,2.08-5.88,0-10.67-1.91-14.37-5.73-3.7-3.82-5.55-8.61-5.55-14.36s1.84-10.79,5.53-14.68c3.69-3.89,8.31-5.84,13.87-5.84,5.91,0,10.71,1.95,14.41,5.84,3.7,3.89,5.55,9.03,5.55,15.42l-.03,1.85ZM145.25,30.39c-.62-2.15-1.85-3.91-3.68-5.26-1.83-1.35-3.95-2.02-6.37-2.02-2.62,0-4.93.76-6.91,2.27-1.24.95-2.39,2.61-3.45,5.01h20.41Z"/>
        <path class="cls-2" d="M240.87,2.31h10.23c5.54,0,9.53.53,11.98,1.58,2.45,1.05,4.38,2.76,5.79,5.11,1.41,2.35,2.12,5.18,2.12,8.47,0,3.64-.93,6.67-2.78,9.09-1.85,2.41-4.36,4.1-7.53,5.04-1.86.54-5.25.82-10.17.82v22.12h-9.65V2.31ZM250.52,22.72h3.07c2.41,0,4.09-.18,5.03-.53.94-.36,1.69-.94,2.22-1.76.54-.82.81-1.81.81-2.97,0-2.02-.76-3.49-2.27-4.42-1.1-.69-3.15-1.03-6.14-1.03h-2.72v10.72Z"/>
        <path class="cls-3" d="M284.9,2.31h9.79l19.5,52.22h-10.03l-3.97-10.76h-20.69l-4.13,10.76h-10.03l19.55-52.22ZM289.85,16.15l-6.8,17.93h13.56l-6.76-17.93Z"/>
        <path class="cls-3" d="M318.35,2.31h10.23c5.6,0,9.59.51,11.96,1.54,2.38,1.03,4.28,2.74,5.73,5.13,1.45,2.39,2.17,5.22,2.17,8.49,0,3.43-.8,6.3-2.4,8.61-1.6,2.31-4,4.05-7.22,5.24l12.01,23.22h-10.55l-11.4-22.12h-.88v22.12h-9.65V2.31ZM328,22.72h3.03c3.07,0,5.18-.41,6.34-1.25,1.16-.83,1.74-2.21,1.74-4.13,0-1.14-.29-2.13-.86-2.97-.57-.84-1.34-1.45-2.3-1.82-.96-.37-2.73-.55-5.29-.55h-2.65v10.72Z"/>
        <path class="cls-3" d="M356.68,2.31h9.58v52.22h-9.58V2.31Z"/>
        <path class="cls-3" d="M404.37,9.41l-7.15,6.5c-2.51-3.6-5.06-5.4-7.67-5.4-1.26,0-2.3.35-3.11,1.05-.81.7-1.21,1.48-1.21,2.36s.29,1.7.86,2.48c.78,1.04,3.14,3.28,7.08,6.71,3.68,3.17,5.91,5.17,6.7,6,1.96,2.04,3.34,3.98,4.16,5.84.82,1.86,1.23,3.89,1.23,6.09,0,4.28-1.44,7.82-4.32,10.61-2.87,2.79-6.62,4.19-11.25,4.19-3.61,0-6.76-.91-9.44-2.73-2.68-1.82-4.98-4.69-6.89-8.59l8.11-5.04c2.44,4.61,5.25,6.92,8.42,6.92,1.66,0,3.05-.5,4.18-1.49,1.13-.99,1.69-2.14,1.69-3.44,0-1.19-.42-2.37-1.28-3.55-.85-1.18-2.73-2.99-5.63-5.43-5.53-4.64-9.09-8.22-10.7-10.74-1.61-2.52-2.42-5.04-2.42-7.54,0-3.62,1.34-6.73,4.02-9.32,2.68-2.59,5.99-3.89,9.92-3.89,2.53,0,4.94.6,7.23,1.81,2.29,1.21,4.77,3.41,7.44,6.6Z"/>
        <path class="cls-3" d="M219.75,7.69V1.91h-58.33v26.67c0,15.85,13.1,28.7,29.26,28.7,13.18,0,24.32-8.56,27.98-20.31.25.02.51.04.77.04,8.25,0,14.95-6.57,14.95-14.67,0-7.99-6.52-14.48-14.62-14.65ZM219.86,27.49c-.03-.67-.05-1.34-.12-1.98v-8.32c2.76.17,4.96,2.4,4.96,5.15s-2.14,4.91-4.84,5.15Z"/>
        <g>
          <path class="cls-1" d="M183.79,9.91h4.95v29.66h-4.95v-2.26c-.97.99-1.94,1.72-2.91,2.15-.97.44-2.03.66-3.16.66-2.55,0-4.75-1.07-6.62-3.22-1.86-2.14-2.79-4.81-2.79-7.99s.9-6.01,2.7-8.12c1.8-2.11,3.99-3.17,6.56-3.17,1.18,0,2.29.24,3.33.73,1.04.49,2,1.21,2.88,2.18v-10.62ZM178.58,22.58c-1.53,0-2.8.59-3.82,1.76-1.01,1.17-1.52,2.68-1.52,4.51s.51,3.37,1.55,4.57c1.03,1.19,2.3,1.79,3.81,1.79s2.84-.59,3.87-1.76c1.02-1.17,1.54-2.71,1.54-4.61s-.51-3.37-1.54-4.52c-1.02-1.15-2.32-1.73-3.89-1.73Z"/>
          <path class="cls-1" d="M212,30.43h-15.91c.23,1.52.84,2.73,1.84,3.63,1,.9,2.27,1.35,3.82,1.35,1.85,0,3.44-.7,4.77-2.1l4.17,2.12c-1.04,1.6-2.29,2.78-3.74,3.55-1.45.77-3.18,1.15-5.17,1.15-3.1,0-5.62-1.06-7.57-3.18-1.95-2.12-2.92-4.77-2.92-7.96s.97-5.98,2.91-8.13c1.94-2.16,4.38-3.23,7.3-3.23,3.11,0,5.63,1.08,7.58,3.23,1.95,2.16,2.92,5.01,2.92,8.55l-.02,1.02ZM207.05,26.2c-.33-1.19-.97-2.16-1.94-2.91-.97-.75-2.08-1.12-3.35-1.12-1.38,0-2.59.42-3.63,1.26-.65.53-1.26,1.45-1.82,2.77h10.74Z"/>
        </g>
      </g>
      <rect class="cls-3" x="134.06" y="1.9" width="6.67" height="11.01" transform="translate(89.08 -121.43) rotate(66.36)"/>
    </g>
  </g>
</svg>